<svg xmlns="http://www.w3.org/2000/svg" viewBox="0 0 1080 660" font-family="-apple-system, BlinkMacSystemFont, 'PingFang SC', 'Hiragino Sans GB', 'Microsoft YaHei', 'Segoe UI', Arial, sans-serif" font-size="12">
  <defs>
    <marker id="arr" markerWidth="8" markerHeight="6" refX="8" refY="3" orient="auto">
      <path d="M0,0 L8,3 L0,6" fill="none" stroke="#333" stroke-width="1.5"/>
    </marker>
    <marker id="arrg" markerWidth="8" markerHeight="6" refX="8" refY="3" orient="auto">
      <path d="M0,0 L8,3 L0,6" fill="none" stroke="#888" stroke-width="1.3"/>
    </marker>
  </defs>
  <rect width="1080" height="660" fill="#fff"/>

  <text x="1060" y="22" text-anchor="end" fill="#aaa" font-size="10">动态客户端注册（RFC 7591 / 9728）—— 自注册客户端的请求路径</text>

  <!-- ===== Participants + lifelines ===== -->
  <g>
    <rect x="30" y="40" width="160" height="46" rx="6" fill="#fff" stroke="#333" stroke-width="1.5"/>
    <text x="110" y="60" text-anchor="middle" font-size="12" font-weight="500">客户端</text>
    <text x="110" y="76" text-anchor="middle" font-size="9" fill="#999">Kiro · Claude Code · Codex</text>
    <line x1="110" y1="86" x2="110" y2="566" stroke="#bbb" stroke-width="1" stroke-dasharray="4,3"/>
  </g>
  <g>
    <rect x="290" y="40" width="160" height="46" rx="6" fill="#fff" stroke="#333" stroke-width="1.5"/>
    <text x="370" y="60" text-anchor="middle" font-size="12" font-weight="500">边缘</text>
    <text x="370" y="76" text-anchor="middle" font-size="9" fill="#999">CloudFront → API Gateway</text>
    <line x1="370" y1="86" x2="370" y2="566" stroke="#bbb" stroke-width="1" stroke-dasharray="4,3"/>
  </g>
  <g>
    <rect x="560" y="40" width="180" height="46" rx="6" fill="#fff" stroke="#333" stroke-width="1.5"/>
    <text x="650" y="60" text-anchor="middle" font-size="12" font-weight="500">Middleware Lambda</text>
    <text x="650" y="76" text-anchor="middle" font-size="9" fill="#999">/mcp · 数据面</text>
    <line x1="650" y1="86" x2="650" y2="566" stroke="#bbb" stroke-width="1" stroke-dasharray="4,3"/>
  </g>
  <g>
    <rect x="880" y="40" width="180" height="46" rx="6" fill="#fff" stroke="#333" stroke-width="1.5"/>
    <text x="970" y="60" text-anchor="middle" font-size="12" font-weight="500">OAuth Lambda</text>
    <text x="970" y="76" text-anchor="middle" font-size="9" fill="#999">.well-known/* · /register</text>
    <line x1="970" y1="86" x2="970" y2="566" stroke="#bbb" stroke-width="1" stroke-dasharray="4,3"/>
  </g>

  <!-- ===== Round 1 ===== -->
  <line x1="110" y1="116" x2="370" y2="116" stroke="#333" stroke-width="1.5" marker-end="url(#arr)"/>
  <text x="120" y="110" fill="#444" font-size="11">① POST /mcp · 无 token</text>
  <line x1="370" y1="142" x2="650" y2="142" stroke="#333" stroke-width="1.5" marker-end="url(#arr)"/>
  <line x1="650" y1="170" x2="370" y2="170" stroke="#888" stroke-width="1.3" stroke-dasharray="5,3" marker-end="url(#arrg)"/>
  <text x="380" y="164" fill="#888" font-size="10">401 · WWW-Authenticate → 发现地址</text>
  <line x1="370" y1="196" x2="110" y2="196" stroke="#888" stroke-width="1.3" stroke-dasharray="5,3" marker-end="url(#arrg)"/>

  <!-- ===== Round 2 ===== -->
  <line x1="110" y1="230" x2="370" y2="230" stroke="#333" stroke-width="1.5" marker-end="url(#arr)"/>
  <text x="120" y="224" fill="#444" font-size="11">② GET /.well-known/* · 服务发现</text>
  <line x1="370" y1="256" x2="970" y2="256" stroke="#333" stroke-width="1.5" marker-end="url(#arr)"/>
  <line x1="970" y1="284" x2="370" y2="284" stroke="#888" stroke-width="1.3" stroke-dasharray="5,3" marker-end="url(#arrg)"/>
  <text x="380" y="278" fill="#888" font-size="10">authorization-server + protected-resource 元数据</text>
  <line x1="370" y1="310" x2="110" y2="310" stroke="#888" stroke-width="1.3" stroke-dasharray="5,3" marker-end="url(#arrg)"/>

  <!-- ===== Round 3 ===== -->
  <line x1="110" y1="344" x2="370" y2="344" stroke="#333" stroke-width="2" marker-end="url(#arr)"/>
  <text x="120" y="338" fill="#444" font-size="11" font-weight="600">③ POST /register · redirect_uris（不申请 secret）</text>
  <line x1="370" y1="370" x2="970" y2="370" stroke="#333" stroke-width="1.5" marker-end="url(#arr)"/>
  <rect x="735" y="386" width="325" height="48" rx="6" fill="#fafafa" stroke="#888" stroke-width="1.2"/>
  <text x="747" y="405" fill="#444" font-size="10" font-weight="600">按白名单校验 redirect_uris，</text>
  <text x="747" y="422" fill="#444" font-size="10">签发 HMAC 签名的 client_id（不存储 secret）</text>
  <line x1="970" y1="456" x2="370" y2="456" stroke="#888" stroke-width="1.3" stroke-dasharray="5,3" marker-end="url(#arrg)"/>
  <text x="380" y="450" fill="#888" font-size="10">201 · client_id（token_endpoint_auth_method: none）</text>
  <line x1="370" y1="482" x2="110" y2="482" stroke="#888" stroke-width="1.3" stroke-dasharray="5,3" marker-end="url(#arrg)"/>

  <!-- ===== Continue ===== -->
  <line x1="110" y1="516" x2="370" y2="516" stroke="#333" stroke-width="1.3" stroke-dasharray="2,2" marker-end="url(#arr)"/>
  <text x="120" y="510" fill="#444" font-size="11" font-weight="600">④ 继续 OAuth 2.0 + PKCE（见 oauth-pkce-sequence）</text>

  <!-- footnote -->
  <line x1="30" y1="582" x2="1050" y2="582" stroke="#eee" stroke-width="1"/>
  <text x="30" y="602" fill="#666" font-size="10">每个请求与响应都经过边缘（CloudFront + API Gateway）：终止 TLS、施加 WAF 与按 IP 限流（对未认证的 /register 最严），并按路径分发到对应 Lambda。</text>
  <text x="30" y="620" fill="#666" font-size="10">401 由数据面（Middleware Lambda）签发；服务发现与注册由控制面（OAuth Lambda）提供。</text>
  <text x="30" y="638" fill="#999" font-size="9">公共客户端不获发 secret —— PKCE 是其在 /token 的唯一认证。Amazon Quick 跳过 DCR，改用预置的 client_id + client_secret。</text>
</svg>
