<svg xmlns="http://www.w3.org/2000/svg" viewBox="0 0 1080 560" font-family="-apple-system, BlinkMacSystemFont, 'PingFang SC', 'Hiragino Sans GB', 'Microsoft YaHei', 'Segoe UI', Arial, sans-serif" font-size="12">
  <defs>
    <marker id="arr" markerWidth="8" markerHeight="6" refX="8" refY="3" orient="auto">
      <path d="M0,0 L8,3 L0,6" fill="none" stroke="#333" stroke-width="1.5"/>
    </marker>
    <marker id="arrg" markerWidth="8" markerHeight="6" refX="8" refY="3" orient="auto">
      <path d="M0,0 L8,3 L0,6" fill="none" stroke="#888" stroke-width="1.3"/>
    </marker>
  </defs>
  <rect width="1080" height="560" fill="#fff"/>

  <text x="1060" y="22" text-anchor="end" fill="#aaa" font-size="10">one MCP tool call — identity resolved per request</text>

  <!-- ===== Actors + lifelines ===== -->
  <!-- centers: 110, 330, 545, 760, 970 -->
  <g>
    <rect x="35" y="38" width="150" height="44" rx="6" fill="#fff" stroke="#333" stroke-width="1.5"/>
    <text x="110" y="60" text-anchor="middle" font-size="12" font-weight="500">MCP Client</text>
    <text x="110" y="75" text-anchor="middle" font-size="9" fill="#999">Quick Desktop</text>
    <line x1="110" y1="82" x2="110" y2="520" stroke="#bbb" stroke-width="1" stroke-dasharray="4,3"/>
  </g>
  <g>
    <rect x="255" y="38" width="150" height="44" rx="6" fill="#fff" stroke="#333" stroke-width="1.5"/>
    <text x="330" y="60" text-anchor="middle" font-size="12" font-weight="500">MCP Endpoint</text>
    <text x="330" y="75" text-anchor="middle" font-size="9" fill="#999">Middleware · /mcp</text>
    <line x1="330" y1="82" x2="330" y2="520" stroke="#bbb" stroke-width="1" stroke-dasharray="4,3"/>
  </g>
  <g>
    <rect x="470" y="38" width="150" height="44" rx="6" fill="#fafafa" stroke="#888" stroke-width="1"/>
    <text x="545" y="60" text-anchor="middle" font-size="12" font-weight="500">Secrets Manager</text>
    <text x="545" y="75" text-anchor="middle" font-size="9" fill="#999">users/{userId}</text>
    <line x1="545" y1="82" x2="545" y2="520" stroke="#bbb" stroke-width="1" stroke-dasharray="4,3"/>
  </g>
  <g>
    <rect x="685" y="38" width="150" height="44" rx="6" fill="#fff" stroke="#333" stroke-width="1.5"/>
    <text x="760" y="58" text-anchor="middle" font-size="12" font-weight="500">AgentCore</text>
    <text x="760" y="73" text-anchor="middle" font-size="9" fill="#999">microVM · session</text>
    <line x1="760" y1="82" x2="760" y2="520" stroke="#bbb" stroke-width="1" stroke-dasharray="4,3"/>
  </g>
  <g>
    <rect x="895" y="38" width="150" height="44" rx="6" fill="#fff" stroke="#333" stroke-width="1.5"/>
    <text x="970" y="60" text-anchor="middle" font-size="12" font-weight="500">Feishu OpenAPI</text>
    <text x="970" y="75" text-anchor="middle" font-size="9" fill="#999">OAuth + REST</text>
    <line x1="970" y1="82" x2="970" y2="520" stroke="#bbb" stroke-width="1" stroke-dasharray="4,3"/>
  </g>

  <!-- ===== Messages ===== -->
  <!-- 1. client -> endpoint -->
  <line x1="110" y1="120" x2="330" y2="120" stroke="#333" stroke-width="1.5" marker-end="url(#arr)"/>
  <text x="120" y="114" fill="#444" font-size="10">POST /mcp · Bearer MCP-Token</text>

  <!-- 2. endpoint self: verify + extract -->
  <path d="M330 144 h70 v26 h-70" fill="none" stroke="#333" stroke-width="1.3" marker-end="url(#arr)"/>
  <text x="408" y="153" fill="#444" font-size="10">verify HMAC signature</text>
  <text x="408" y="167" fill="#444" font-size="10">→ extract userId (signed, not user-supplied)</text>

  <!-- 3. endpoint -> secrets -->
  <line x1="330" y1="196" x2="545" y2="196" stroke="#333" stroke-width="1.5" marker-end="url(#arr)"/>
  <text x="340" y="190" fill="#444" font-size="10">read users/{userId}</text>

  <!-- 4. secrets -> endpoint (return) -->
  <line x1="545" y1="224" x2="330" y2="224" stroke="#888" stroke-width="1.3" stroke-dasharray="5,3" marker-end="url(#arrg)"/>
  <text x="340" y="218" fill="#888" font-size="10">Feishu Token (never sent to client)</text>

  <!-- 5. endpoint -> agentcore -->
  <line x1="330" y1="264" x2="760" y2="264" stroke="#333" stroke-width="1.5" marker-end="url(#arr)"/>
  <text x="340" y="258" fill="#444" font-size="10">SigV4 invoke · Mcp-Session-Id → sticky microVM</text>

  <!-- 6. agentcore self: spawn child -->
  <path d="M760 288 h70 v26 h-70" fill="none" stroke="#333" stroke-width="1.3" marker-end="url(#arr)"/>
  <text x="838" y="297" fill="#444" font-size="10">spawn child process —</text>
  <text x="838" y="311" fill="#444" font-size="10">Feishu Token via env only</text>

  <!-- 7. agentcore -> feishu -->
  <line x1="760" y1="340" x2="970" y2="340" stroke="#333" stroke-width="1.5" marker-end="url(#arr)"/>
  <text x="770" y="334" fill="#444" font-size="10">API call · user_access_token</text>

  <!-- 8. feishu -> agentcore (return) -->
  <line x1="970" y1="368" x2="760" y2="368" stroke="#888" stroke-width="1.3" stroke-dasharray="5,3" marker-end="url(#arrg)"/>
  <text x="770" y="362" fill="#888" font-size="10">API result</text>

  <!-- 9. agentcore -> endpoint (return) -->
  <line x1="760" y1="408" x2="330" y2="408" stroke="#888" stroke-width="1.3" stroke-dasharray="5,3" marker-end="url(#arrg)"/>
  <text x="340" y="402" fill="#888" font-size="10">tool result (child exits · token not persisted)</text>

  <!-- 10. endpoint -> client (return) -->
  <line x1="330" y1="436" x2="110" y2="436" stroke="#888" stroke-width="1.3" stroke-dasharray="5,3" marker-end="url(#arrg)"/>
  <text x="120" y="430" fill="#888" font-size="10">MCP response</text>

  <!-- footnote band -->
  <line x1="35" y1="470" x2="1045" y2="470" stroke="#eee" stroke-width="1"/>
  <text x="35" y="492" fill="#666" font-size="10">A different user → a different MCP-Token → a different userId → that user's own secret. No ambient "current user" anywhere.</text>
  <text x="35" y="508" fill="#999" font-size="9">Isolation: signed userId (step 2) · per-user secret (step 3) · per-session microVM + per-call child + env-only token (steps 5–6).</text>
</svg>
